<?xml version="1.0" encoding="UTF-8" standalone="no"?>
<!-- Created with Inkscape (http://www.inkscape.org/) -->

<svg
   xmlns:dc="http://purl.org/dc/elements/1.1/"
   xmlns:cc="http://creativecommons.org/ns#"
   xmlns:rdf="http://www.w3.org/1999/02/22-rdf-syntax-ns#"
   xmlns:svg="http://www.w3.org/2000/svg"
   xmlns="http://www.w3.org/2000/svg"
   xmlns:sodipodi="http://sodipodi.sourceforge.net/DTD/sodipodi-0.dtd"
   xmlns:inkscape="http://www.inkscape.org/namespaces/inkscape"
   width="461.88455"
   height="403.53125"
   id="svg13872"
   version="1.1"
   inkscape:version="0.48.2 r9819"
   sodipodi:docname="AJAX1.svg">
  <defs
     id="defs13874">
    <inkscape:perspective
       sodipodi:type="inkscape:persp3d"
       inkscape:vp_x="0 : 526.18109 : 1"
       inkscape:vp_y="0 : 1000 : 0"
       inkscape:vp_z="744.09448 : 526.18109 : 1"
       inkscape:persp3d-origin="372.04724 : 350.78739 : 1"
       id="perspective13880" />
    <inkscape:perspective
       id="perspective13862"
       inkscape:persp3d-origin="0.5 : 0.33333333 : 1"
       inkscape:vp_z="1 : 0.5 : 1"
       inkscape:vp_y="0 : 1000 : 0"
       inkscape:vp_x="0 : 0.5 : 1"
       sodipodi:type="inkscape:persp3d" />
    <inkscape:perspective
       id="perspective13909"
       inkscape:persp3d-origin="0.5 : 0.33333333 : 1"
       inkscape:vp_z="1 : 0.5 : 1"
       inkscape:vp_y="0 : 1000 : 0"
       inkscape:vp_x="0 : 0.5 : 1"
       sodipodi:type="inkscape:persp3d" />
    <inkscape:perspective
       id="perspective13946"
       inkscape:persp3d-origin="0.5 : 0.33333333 : 1"
       inkscape:vp_z="1 : 0.5 : 1"
       inkscape:vp_y="0 : 1000 : 0"
       inkscape:vp_x="0 : 0.5 : 1"
       sodipodi:type="inkscape:persp3d" />
    <inkscape:perspective
       id="perspective13983"
       inkscape:persp3d-origin="0.5 : 0.33333333 : 1"
       inkscape:vp_z="1 : 0.5 : 1"
       inkscape:vp_y="0 : 1000 : 0"
       inkscape:vp_x="0 : 0.5 : 1"
       sodipodi:type="inkscape:persp3d" />
    <inkscape:perspective
       id="perspective14020"
       inkscape:persp3d-origin="0.5 : 0.33333333 : 1"
       inkscape:vp_z="1 : 0.5 : 1"
       inkscape:vp_y="0 : 1000 : 0"
       inkscape:vp_x="0 : 0.5 : 1"
       sodipodi:type="inkscape:persp3d" />
    <inkscape:perspective
       id="perspective14057"
       inkscape:persp3d-origin="0.5 : 0.33333333 : 1"
       inkscape:vp_z="1 : 0.5 : 1"
       inkscape:vp_y="0 : 1000 : 0"
       inkscape:vp_x="0 : 0.5 : 1"
       sodipodi:type="inkscape:persp3d" />
    <inkscape:perspective
       id="perspective14100"
       inkscape:persp3d-origin="0.5 : 0.33333333 : 1"
       inkscape:vp_z="1 : 0.5 : 1"
       inkscape:vp_y="0 : 1000 : 0"
       inkscape:vp_x="0 : 0.5 : 1"
       sodipodi:type="inkscape:persp3d" />
    <inkscape:perspective
       id="perspective14137"
       inkscape:persp3d-origin="0.5 : 0.33333333 : 1"
       inkscape:vp_z="1 : 0.5 : 1"
       inkscape:vp_y="0 : 1000 : 0"
       inkscape:vp_x="0 : 0.5 : 1"
       sodipodi:type="inkscape:persp3d" />
    <inkscape:perspective
       id="perspective14174"
       inkscape:persp3d-origin="0.5 : 0.33333333 : 1"
       inkscape:vp_z="1 : 0.5 : 1"
       inkscape:vp_y="0 : 1000 : 0"
       inkscape:vp_x="0 : 0.5 : 1"
       sodipodi:type="inkscape:persp3d" />
    <inkscape:perspective
       id="perspective14217"
       inkscape:persp3d-origin="0.5 : 0.33333333 : 1"
       inkscape:vp_z="1 : 0.5 : 1"
       inkscape:vp_y="0 : 1000 : 0"
       inkscape:vp_x="0 : 0.5 : 1"
       sodipodi:type="inkscape:persp3d" />
    <inkscape:perspective
       id="perspective14254"
       inkscape:persp3d-origin="0.5 : 0.33333333 : 1"
       inkscape:vp_z="1 : 0.5 : 1"
       inkscape:vp_y="0 : 1000 : 0"
       inkscape:vp_x="0 : 0.5 : 1"
       sodipodi:type="inkscape:persp3d" />
    <inkscape:perspective
       id="perspective14291"
       inkscape:persp3d-origin="0.5 : 0.33333333 : 1"
       inkscape:vp_z="1 : 0.5 : 1"
       inkscape:vp_y="0 : 1000 : 0"
       inkscape:vp_x="0 : 0.5 : 1"
       sodipodi:type="inkscape:persp3d" />
    <inkscape:perspective
       id="perspective14328"
       inkscape:persp3d-origin="0.5 : 0.33333333 : 1"
       inkscape:vp_z="1 : 0.5 : 1"
       inkscape:vp_y="0 : 1000 : 0"
       inkscape:vp_x="0 : 0.5 : 1"
       sodipodi:type="inkscape:persp3d" />
    <inkscape:perspective
       id="perspective14365"
       inkscape:persp3d-origin="0.5 : 0.33333333 : 1"
       inkscape:vp_z="1 : 0.5 : 1"
       inkscape:vp_y="0 : 1000 : 0"
       inkscape:vp_x="0 : 0.5 : 1"
       sodipodi:type="inkscape:persp3d" />
    <inkscape:perspective
       id="perspective14421"
       inkscape:persp3d-origin="0.5 : 0.33333333 : 1"
       inkscape:vp_z="1 : 0.5 : 1"
       inkscape:vp_y="0 : 1000 : 0"
       inkscape:vp_x="0 : 0.5 : 1"
       sodipodi:type="inkscape:persp3d" />
    <inkscape:perspective
       id="perspective14461"
       inkscape:persp3d-origin="0.5 : 0.33333333 : 1"
       inkscape:vp_z="1 : 0.5 : 1"
       inkscape:vp_y="0 : 1000 : 0"
       inkscape:vp_x="0 : 0.5 : 1"
       sodipodi:type="inkscape:persp3d" />
    <inkscape:perspective
       id="perspective14572"
       inkscape:persp3d-origin="0.5 : 0.33333333 : 1"
       inkscape:vp_z="1 : 0.5 : 1"
       inkscape:vp_y="0 : 1000 : 0"
       inkscape:vp_x="0 : 0.5 : 1"
       sodipodi:type="inkscape:persp3d" />
    <inkscape:perspective
       id="perspective14642"
       inkscape:persp3d-origin="0.5 : 0.33333333 : 1"
       inkscape:vp_z="1 : 0.5 : 1"
       inkscape:vp_y="0 : 1000 : 0"
       inkscape:vp_x="0 : 0.5 : 1"
       sodipodi:type="inkscape:persp3d" />
    <inkscape:perspective
       id="perspective14703"
       inkscape:persp3d-origin="0.5 : 0.33333333 : 1"
       inkscape:vp_z="1 : 0.5 : 1"
       inkscape:vp_y="0 : 1000 : 0"
       inkscape:vp_x="0 : 0.5 : 1"
       sodipodi:type="inkscape:persp3d" />
    <inkscape:perspective
       id="perspective14743"
       inkscape:persp3d-origin="0.5 : 0.33333333 : 1"
       inkscape:vp_z="1 : 0.5 : 1"
       inkscape:vp_y="0 : 1000 : 0"
       inkscape:vp_x="0 : 0.5 : 1"
       sodipodi:type="inkscape:persp3d" />
    <inkscape:perspective
       id="perspective14783"
       inkscape:persp3d-origin="0.5 : 0.33333333 : 1"
       inkscape:vp_z="1 : 0.5 : 1"
       inkscape:vp_y="0 : 1000 : 0"
       inkscape:vp_x="0 : 0.5 : 1"
       sodipodi:type="inkscape:persp3d" />
    <inkscape:perspective
       id="perspective14823"
       inkscape:persp3d-origin="0.5 : 0.33333333 : 1"
       inkscape:vp_z="1 : 0.5 : 1"
       inkscape:vp_y="0 : 1000 : 0"
       inkscape:vp_x="0 : 0.5 : 1"
       sodipodi:type="inkscape:persp3d" />
    <inkscape:perspective
       id="perspective14863"
       inkscape:persp3d-origin="0.5 : 0.33333333 : 1"
       inkscape:vp_z="1 : 0.5 : 1"
       inkscape:vp_y="0 : 1000 : 0"
       inkscape:vp_x="0 : 0.5 : 1"
       sodipodi:type="inkscape:persp3d" />
    <inkscape:perspective
       id="perspective14906"
       inkscape:persp3d-origin="0.5 : 0.33333333 : 1"
       inkscape:vp_z="1 : 0.5 : 1"
       inkscape:vp_y="0 : 1000 : 0"
       inkscape:vp_x="0 : 0.5 : 1"
       sodipodi:type="inkscape:persp3d" />
    <inkscape:perspective
       id="perspective14949"
       inkscape:persp3d-origin="0.5 : 0.33333333 : 1"
       inkscape:vp_z="1 : 0.5 : 1"
       inkscape:vp_y="0 : 1000 : 0"
       inkscape:vp_x="0 : 0.5 : 1"
       sodipodi:type="inkscape:persp3d" />
    <inkscape:perspective
       id="perspective14998"
       inkscape:persp3d-origin="0.5 : 0.33333333 : 1"
       inkscape:vp_z="1 : 0.5 : 1"
       inkscape:vp_y="0 : 1000 : 0"
       inkscape:vp_x="0 : 0.5 : 1"
       sodipodi:type="inkscape:persp3d" />
    <inkscape:perspective
       id="perspective15041"
       inkscape:persp3d-origin="0.5 : 0.33333333 : 1"
       inkscape:vp_z="1 : 0.5 : 1"
       inkscape:vp_y="0 : 1000 : 0"
       inkscape:vp_x="0 : 0.5 : 1"
       sodipodi:type="inkscape:persp3d" />
    <inkscape:perspective
       id="perspective15084"
       inkscape:persp3d-origin="0.5 : 0.33333333 : 1"
       inkscape:vp_z="1 : 0.5 : 1"
       inkscape:vp_y="0 : 1000 : 0"
       inkscape:vp_x="0 : 0.5 : 1"
       sodipodi:type="inkscape:persp3d" />
    <inkscape:perspective
       id="perspective15121"
       inkscape:persp3d-origin="0.5 : 0.33333333 : 1"
       inkscape:vp_z="1 : 0.5 : 1"
       inkscape:vp_y="0 : 1000 : 0"
       inkscape:vp_x="0 : 0.5 : 1"
       sodipodi:type="inkscape:persp3d" />
    <inkscape:perspective
       id="perspective15158"
       inkscape:persp3d-origin="0.5 : 0.33333333 : 1"
       inkscape:vp_z="1 : 0.5 : 1"
       inkscape:vp_y="0 : 1000 : 0"
       inkscape:vp_x="0 : 0.5 : 1"
       sodipodi:type="inkscape:persp3d" />
    <inkscape:perspective
       id="perspective15207"
       inkscape:persp3d-origin="0.5 : 0.33333333 : 1"
       inkscape:vp_z="1 : 0.5 : 1"
       inkscape:vp_y="0 : 1000 : 0"
       inkscape:vp_x="0 : 0.5 : 1"
       sodipodi:type="inkscape:persp3d" />
    <inkscape:perspective
       id="perspective15283"
       inkscape:persp3d-origin="0.5 : 0.33333333 : 1"
       inkscape:vp_z="1 : 0.5 : 1"
       inkscape:vp_y="0 : 1000 : 0"
       inkscape:vp_x="0 : 0.5 : 1"
       sodipodi:type="inkscape:persp3d" />
  </defs>
  <sodipodi:namedview
     id="base"
     pagecolor="#ffffff"
     bordercolor="#666666"
     borderopacity="1.0"
     inkscape:pageopacity="0.0"
     inkscape:pageshadow="2"
     inkscape:zoom="1.4"
     inkscape:cx="137.69372"
     inkscape:cy="120.36578"
     inkscape:document-units="px"
     inkscape:current-layer="layer1"
     showgrid="false"
     inkscape:window-width="1280"
     inkscape:window-height="1004"
     inkscape:window-x="-8"
     inkscape:window-y="-8"
     inkscape:window-maximized="1"
     fit-margin-top="0"
     fit-margin-left="0"
     fit-margin-right="0"
     fit-margin-bottom="0" />
  <metadata
     id="metadata13877">
    <rdf:RDF>
      <cc:Work
         rdf:about="">
        <dc:format>image/svg+xml</dc:format>
        <dc:type
           rdf:resource="http://purl.org/dc/dcmitype/StillImage" />
        <dc:title />
      </cc:Work>
    </rdf:RDF>
  </metadata>
  <g
     inkscape:label="Layer 1"
     inkscape:groupmode="layer"
     id="layer1"
     transform="translate(230.46903,19.78125)">
    <path
       d="M -224.31199,346.28508 -20.911988,-4.7199194 c 10.8,-19.0799996 30.6000004,-19.0799996 42.1,0 L 225.68801,347.00508 c 11.85,20.155 1.8,35.995 -22.35,35.995 l -405,0 c -25.9,0 -34.9,-15.475 -22.65,-36.715"
       style="fill:#ffffff;fill-opacity:1;fill-rule:nonzero;stroke:#000000;stroke-width:1.5;stroke-miterlimit:4;stroke-opacity:1;stroke-dasharray:none"
       id="path7620"
       inkscape:connector-curvature="0" />
    <path
       d="M -215.31199,350.60008 -13.711988,2.1200806 c 7.2000004,-12.5999996 20.1500004,-12.2399996 27.35,0.36 L 216.33801,350.96008 c 7.2,12.6 -0.4,22.325 -14.4,22.325 l -401.4,0 c -15.85,0 -22.7,-10.8 -15.85,-22.685"
       style="fill:#c50000;fill-opacity:1;fill-rule:nonzero;stroke:none"
       id="path7624"
       inkscape:connector-curvature="0" />
    <path
       d="M 1.0380124,59.000081 159.78801,333.68508 l -320.4,0 L 1.0380124,59.000081"
       style="fill:#ffb723;fill-opacity:1;fill-rule:nonzero;stroke:none"
       id="path7626"
       inkscape:connector-curvature="0" />
    <path
       d="m -37.861988,170.24008 c -3.6,3.6 -8.6,6.48 -2.15,18.355 6.15,11.885 2.5,9 1.8,10.805 -1.05,2.16 -8.25,8.64 -9,12.955 -1.05,4.33 -1.8,12.61 -3.95,16.92 -2.9,6.84 -18.7,12.24 -21.95,14.045 -3.6,2.16 -4,5.405 -3.25,6.48 0.7,0.715 2.5,1.44 6.5,0 3.95,-1.435 11.5,-3.595 14,-3.24 2.55,0.36 4,-0.715 5.4,-2.515 1.45,-1.805 4.35,-6.485 6.5,-6.85 2.15,-0.72 1.05,1.445 0.7,2.885 -0.35,1.435 -3.95,11.885 -10.05,16.565 -5.75,4.675 -0.75,6.11 0.7,7.195 1.45,1.085 6.5,3.605 5.4,5.04 -0.7,1.44 -2.9,7.56 -3.25,10.44 -0.7,2.52 -0.7,15.115 -0.7,21.965 0,7.195 -2.15,14.035 -4.35,16.2 -2.5,2.52 -7.55,5.76 -8.6,6.475 -0.75,0.715 0,2.52 1.45,3.6 1.05,0.725 5.4,2.16 7.9,2.16 2.5,0 10.1,0.725 7.9,-5.045 -1.4,-3.95 0.75,-5.035 1.8,-7.55 0.75,-2.16 6.15,-15.12 6.15,-18.365 0,-2.885 -0.75,-8.28 0.7,-11.52 1.45,-3.24 7.9,-15.48 11.15,-15.48 2.9,0.365 4.35,4.32 4.7,5.4 0.35,0.725 0.7,12.96 1.45,15.12 1.05,2.155 6.45,12.605 7.2,14.405 1.05,1.795 0.35,6.475 1.05,8.635 1.1,1.805 2.9000004,4.32 2.55,6.12 -0.4,2.155 -3.25,7.56 -1.1,9.725 2.1500004,1.795 4.3500004,-0.72 6.8500004,-1.805 2.9,-1.075 7.55,-3.245 5.75,-8.635 -2.15000002,-5.405 -1.80000002,-1.805 -2.15000002,-4.69 -1.09999998,-4.675 -1.09999998,-10.435 -2.49999998,-15.84 -1.45,-5.395 -4.35,-14.03 -5.05,-15.835 -0.75,-1.8 0.35,-4.32 1.05,-5.405 3.25,-4.315 1.45,-8.99 4,-11.155 2.49999998,-2.16 5,-1.44 2.15,-8.275 -1.8,-5.765 -11.5500004,-24.12 -11.5500004,-27.725 0,-3.24 -0.35,-6.835 2.9000004,-7.56 3.25,-0.72 12.95,4.32 14.75,11.165 1.8,6.47 -0.35,12.235 -0.35,14.395 0,1.805 1.45,3.24 2.85,3.96 1.45,0.72 6.4999996,1.435 9.0499996,3.955 2.5,2.17 6.8,3.245 9.35,1.445 2.5,-1.805 7.9,-7.555 10.05,-6.12 1.8,1.795 2.55,6.12 2.2,9.715 -0.4,3.965 -0.75,9.73 -3.65,17.285 -3.2,7.2 -6.45,19.795 -6.45,24.12 0.35,4.68 0,11.16 -1.1,13.325 -1.4,2.52 -4.65,3.595 -3.25,6.11 1.45,2.52 6.85,4.33 11.55,1.445 4.65,-2.88 3.25,-6.845 3.25,-9.005 -0.35,-2.515 0.35,-7.195 0.7,-8.99 0,-1.445 2.9,-9.005 2.9,-10.805 0,-1.805 1.8,-8.645 5,-8.645 3.25,0.365 3.25,5.405 2.9,7.565 -0.35,2.16 -0.35,6.845 2.15,10.8 2.15,3.965 5.05,9.36 5.05,12.6 0.35,3.6 -0.7,9 2.15,10.08 2.9,1.08 5.05,-1.8 8.3,-5.395 2.9,-3.97 1.05,-8.28 -0.35,-10.8 -1.45,-2.17 -4,-10.09 -4.7,-12.965 -0.7,-2.16 -2.15,-16.555 -1.8,-20.16 0.35,-3.24 -2.15,-10.44 -2.9,-13.68 -0.7,-2.885 -2.15,-10.805 -0.7,-11.88 1.8,-0.72 4.7,4.32 6.5,6.84 2.5,3.605 -0.75,9.365 3.25,10.8 3.6,1.445 6.1,-4.68 6.1,-7.56 0,-2.88 -2.9,-12.6 -3.25,-14.755 -0.35,-2.525 -3.6,-10.085 -7.2,-12.61 -3.25,-2.52 -10.1,-8.28 -9.7,-10.075 0.35,-2.16 2.85,-7.195 2.85,-10.08 -0.35,-2.885 -0.7,-10.08 -9,-11.52 -8.25,-1.075 -9.35,6.845 -9.7,7.915 0,1.085 0,7.925 0.7,9.73 0.75,1.795 3.25,2.875 1.1,5.04 -2.15,2.155 -3.6,0.71 -6.1,5.035 -2.55,4.32 -4.7,8.995 -5.8,10.8 -1.05,1.8 -3.6,4.68 -5.75,3.24 -2.5,-1.44 -3.95,-3.965 -5.4,-4.32 -1.45,-0.725 -0.7,-5.045 -1.1,-6.835 -0.35,-1.81 -4.9999996,-12.96 -8.5999996,-16.925 -4,-3.595 -8.3,-11.515 -11.9,-13.68 -3.6,-2.16 -11.8500004,-3.955 -12.9500004,-6.115 -0.7,-2.17 -1.45,-4.325 0,-6.125 1.45,-1.445 5.75,-9.715 5.75,-14.4 0,-4.32 -4.65,-13.325 -12.6,-13.68 -8.25,-0.355 -11.15,3.955 -12.25,5.76"
       style="fill:#000000;fill-opacity:1;fill-rule:nonzero;stroke:none"
       id="path7630"
       inkscape:connector-curvature="0" />
  </g>
</svg>
